<?xml version="1.0" encoding="UTF-8"?> <svg xmlns="http://www.w3.org/2000/svg" width="23" height="22" viewBox="0 0 23 22" fill="none"><path d="M19.5 0.375C20.9497 0.375 22.125 1.55025 22.125 3V19C22.125 20.4497 20.9497 21.625 19.5 21.625H3.5C2.05025 21.625 0.875 20.4497 0.875 19V3C0.875 1.55025 2.05025 0.375 3.5 0.375H19.5ZM3.5 1.625C2.74061 1.625 2.125 2.24061 2.125 3V19C2.125 19.7594 2.74061 20.375 3.5 20.375H19.5C20.2594 20.375 20.875 19.7594 20.875 19V3C20.875 2.24061 20.2594 1.625 19.5 1.625H3.5ZM18 9.5H14V17H9V9.5H5V5H18V9.5Z" fill="black"></path></svg> 